<svg width="59" height="68" viewBox="0 0 59 68" fill="none" xmlns="http://www.w3.org/2000/svg">
    <path d="M11.7871 11.7871C11.7871 8.66093 10.5452 5.66285 8.3347 3.45235C6.1242 1.24185 3.12612 0 0 0V23.5741C1.5479 23.5741 3.08064 23.2692 4.51071 22.6769C5.94078 22.0845 7.24017 21.2163 8.3347 20.1218C9.42923 19.0272 10.2975 17.7278 10.8898 16.2978C11.4822 14.8677 11.7871 13.3349 11.7871 11.7871Z"
          fill="#3C49CB"/>
    <path d="M11.7871 35.3612C11.7871 32.235 10.5452 29.237 8.3347 27.0265C6.1242 24.816 3.12612 23.5741 0 23.5741V47.1482C3.12612 47.1482 6.1242 45.9064 8.3347 43.6959C10.5452 41.4854 11.7871 38.4873 11.7871 35.3612Z"
          fill="#3C49CB"/>
    <path d="M23.5747 0V23.5741C26.7008 23.5741 29.6989 22.3323 31.9094 20.1218C34.1199 17.9113 35.3618 14.9132 35.3618 11.7871C35.3618 8.66093 34.1199 5.66285 31.9094 3.45235C29.6989 1.24185 26.7008 0 23.5747 0Z"
          fill="#3C49CB"/>
    <path d="M35.3613 11.7871C35.3613 13.3349 35.6662 14.8677 36.2586 16.2978C36.8509 17.7278 37.7191 19.0272 38.8137 20.1218C41.0242 22.3323 44.0223 23.5741 47.1484 23.5741V0C44.0223 0 41.0242 1.24185 38.8137 3.45235C36.6032 5.66285 35.3613 8.66093 35.3613 11.7871Z"
          fill="#3C49CB"/>
    <path d="M35.3618 35.3612C35.3618 32.235 34.1199 29.237 31.9094 27.0265C29.6989 24.816 26.7008 23.5741 23.5747 23.5741V47.1482C26.7008 47.1482 29.6989 45.9064 31.9094 43.6959C34.1199 41.4854 35.3618 38.4873 35.3618 35.3612Z"
          fill="#3C49CB"/>
    <path d="M47.1484 23.5741V47.1482C50.2746 47.1482 53.2726 45.9064 55.4831 43.6959C57.6936 41.4854 58.9355 38.4873 58.9355 35.3612C58.9355 32.235 57.6936 29.237 55.4831 27.0265C53.2726 24.816 50.2746 23.5741 47.1484 23.5741Z"
          fill="#3C49CB"/>
    <path d="M9.12651 61.7141C9.13695 62.1461 9.03543 62.5735 8.83183 62.9547C8.6367 63.3088 8.36053 63.6117 8.02589 63.8387C7.66062 64.0814 7.25648 64.2598 6.83098 64.3662C6.35931 64.4873 5.87403 64.5472 5.38707 64.5444H0.0180664V53.5206H6.14733C6.50943 53.5153 6.86707 53.6009 7.18754 53.7696C7.49107 53.9301 7.75994 54.1489 7.97875 54.4135C8.19781 54.6814 8.36835 54.9856 8.48264 55.3122C8.60066 55.6433 8.66096 55.9921 8.66092 56.3436C8.66134 56.8671 8.52361 57.3814 8.26163 57.8347C7.99073 58.3058 7.57391 58.6761 7.07409 58.8896C7.66844 59.0486 8.19523 59.396 8.57547 59.8797C8.94381 60.3581 9.12749 60.9695 9.12651 61.7141ZM2.5626 55.6924V57.9746H5.06735C5.34179 57.976 5.60714 57.8763 5.81288 57.6947C6.02995 57.509 6.13849 57.2193 6.13849 56.8254C6.14728 56.6733 6.12576 56.521 6.07517 56.3774C6.02458 56.2337 5.94594 56.1015 5.84382 55.9885C5.75558 55.8939 5.64852 55.8188 5.5295 55.768C5.41049 55.7173 5.28217 55.692 5.1528 55.6938L2.5626 55.6924ZM6.54073 61.2013C6.55004 60.8856 6.44544 60.577 6.24605 60.332C6.15799 60.2192 6.04498 60.1283 5.91589 60.0664C5.7868 60.0045 5.64513 59.9734 5.50199 59.9755H2.5626V62.3845H5.38707C5.53911 62.3894 5.69055 62.3631 5.83198 62.3071C5.97342 62.2511 6.10182 62.1666 6.20922 62.0588C6.31897 61.9465 6.4045 61.8128 6.46051 61.6661C6.51652 61.5193 6.54181 61.3627 6.53483 61.2058L6.54073 61.2013Z"
          fill="#2E3038"/>
    <path d="M10.4297 55.4596V53.2097H12.9123V55.4596H10.4297ZM10.4297 64.5371V56.3907H12.9123V64.5371H10.4297Z"
          fill="#2E3038"/>
    <path d="M17.7833 64.568C17.2736 64.5747 16.7693 64.4632 16.3099 64.2424C15.8719 64.0311 15.4833 63.7299 15.1696 63.3583C14.8465 62.9723 14.5968 62.5304 14.4329 62.0544C14.2536 61.5407 14.1644 60.9999 14.1691 60.4558C14.1643 59.8877 14.259 59.3233 14.4491 58.7879C14.6225 58.2989 14.8859 57.8467 15.2255 57.4545C15.5652 57.0658 15.9853 56.7555 16.4567 56.5452C16.9281 56.3348 17.4395 56.2293 17.9557 56.236C18.5214 56.2231 19.0805 56.3598 19.5764 56.6324C20.0347 56.8945 20.417 57.2712 20.6859 57.7256V56.3907H22.8473V63.9786C22.8564 64.556 22.7371 65.1282 22.4982 65.6539C22.2714 66.142 21.9399 66.5741 21.5272 66.9195C21.0873 67.28 20.5813 67.5513 20.0376 67.7181C19.4209 67.9096 18.7782 68.0041 18.1325 67.998C17.3613 68.0188 16.5945 67.8757 15.8827 67.5781C15.2555 67.2961 14.697 66.8814 14.2457 66.3626L15.5806 65.013C15.8903 65.3614 16.2711 65.6392 16.6974 65.8277C17.1462 66.0294 17.6331 66.1324 18.1252 66.1298C18.4141 66.1315 18.7017 66.0898 18.9782 66.006C19.239 65.9272 19.4818 65.7981 19.6928 65.6259C19.9065 65.4456 20.0737 65.2167 20.1805 64.9584C20.3074 64.6457 20.3686 64.3102 20.3603 63.9728V63.1815C20.1196 63.6287 19.7451 63.9893 19.2891 64.2129C18.8221 64.4481 18.3062 64.5698 17.7833 64.568ZM18.6379 62.5981C19.0043 62.6029 19.3628 62.4915 19.6619 62.2798C19.9588 62.0705 20.1988 61.7904 20.3603 61.4651V59.7589C20.2116 59.3486 19.947 58.9903 19.5985 58.7275C19.2883 58.4847 18.9066 58.351 18.5127 58.3474C18.2561 58.345 18.003 58.4062 17.776 58.5257C17.5534 58.6451 17.3578 58.8091 17.2013 59.0075C17.0375 59.2167 16.9119 59.4531 16.8301 59.7058C16.7418 59.9684 16.697 60.2436 16.6974 60.5206C16.6943 60.8039 16.7443 61.0853 16.8448 61.3501C16.938 61.5946 17.0776 61.8187 17.2559 62.0102C17.4294 62.1939 17.6377 62.3411 17.8688 62.4434C18.1112 62.5492 18.3734 62.6019 18.6379 62.5981Z"
          fill="#2E3038"/>
    <path d="M33.8594 61.714C33.8699 62.1461 33.7683 62.5734 33.5647 62.9546C33.3691 63.3088 33.0924 63.6117 32.7573 63.8386C32.3922 64.0816 31.988 64.26 31.5624 64.3661C31.0913 64.4872 30.6064 64.5471 30.12 64.5444H24.751V53.5206H30.8802C31.2419 53.5153 31.599 53.6009 31.919 53.7696C32.223 53.9293 32.492 54.1482 32.7102 54.4134C32.9301 54.681 33.1012 54.9852 33.2155 55.3122C33.3328 55.6434 33.3931 55.9922 33.3938 56.3436C33.3948 56.8663 33.2581 57.38 32.9975 57.8331C32.727 58.3041 32.3107 58.6743 31.8114 58.8881C32.4042 59.0488 32.9292 59.3965 33.3084 59.8797C33.6757 60.358 33.8594 60.9695 33.8594 61.714ZM27.2955 55.6923V57.9746H29.7929C30.0674 57.9762 30.3328 57.8765 30.5384 57.6946C30.7555 57.509 30.864 57.2192 30.864 56.8254C30.8728 56.6733 30.8513 56.521 30.8007 56.3773C30.7501 56.2337 30.6715 56.1015 30.5694 55.9885C30.4813 55.894 30.3745 55.819 30.2557 55.7683C30.137 55.7175 30.0089 55.6922 29.8798 55.6938L27.2955 55.6923ZM31.2736 61.2013C31.282 60.8857 31.1775 60.5774 30.979 60.332C30.8906 60.2191 30.7773 60.1282 30.648 60.0663C30.5187 60.0045 30.3768 59.9734 30.2334 59.9754H27.3014V62.3844H30.1259C30.2779 62.3891 30.4292 62.3627 30.5706 62.3067C30.712 62.2507 30.8405 62.1663 30.948 62.0588C31.0564 61.9458 31.1407 61.8118 31.1957 61.6652C31.2506 61.5185 31.2751 61.3622 31.2677 61.2057L31.2736 61.2013Z"
          fill="#2E3038"/>
    <path d="M39.0419 64.6917C38.4075 64.7027 37.7774 64.587 37.1883 64.3514C36.6715 64.1412 36.2036 63.8267 35.8137 63.4276C35.442 63.0409 35.1545 62.5814 34.9694 62.078C34.5864 61.0416 34.5864 59.9024 34.9694 58.866C35.1556 58.3649 35.443 57.9075 35.8137 57.5223C36.2044 57.1223 36.672 56.8056 37.1883 56.5911C37.7759 56.3496 38.4067 56.2308 39.0419 56.2419C39.6747 56.2303 40.3031 56.3492 40.888 56.5911C41.4009 56.8071 41.8653 57.1237 42.2538 57.5223C42.6265 57.9099 42.9167 58.369 43.1069 58.8719C43.3031 59.3845 43.403 59.929 43.4016 60.4779C43.4035 61.0262 43.3062 61.5703 43.1143 62.0839C42.9286 62.5873 42.6407 63.0469 42.2686 63.4335C41.8795 63.8329 41.4119 64.1474 40.8954 64.3573C40.3059 64.5909 39.6758 64.7046 39.0419 64.6917ZM37.2267 60.469C37.2267 61.1104 37.3971 61.6251 37.7379 62.0131C37.8977 62.2022 38.0977 62.3532 38.3233 62.4552C38.5489 62.5571 38.7944 62.6075 39.0419 62.6025C39.2883 62.6053 39.5322 62.5519 39.755 62.4463C39.9724 62.3435 40.1657 62.1958 40.3222 62.0131C40.49 61.8139 40.6189 61.585 40.7024 61.3383C40.7977 61.0611 40.845 60.7696 40.8423 60.4764C40.8423 59.835 40.6714 59.3203 40.3296 58.9323C40.1717 58.7457 39.9742 58.5966 39.7514 58.4959C39.5287 58.3952 39.2863 58.3455 39.0419 58.3503C38.7926 58.3486 38.5461 58.402 38.3199 58.5065C38.0998 58.6077 37.9042 58.7555 37.7468 58.9397C37.579 59.1394 37.4501 59.3688 37.3666 59.616C37.2715 59.8902 37.2241 60.1788 37.2267 60.469Z"
          fill="#2E3038"/>
    <path d="M47.8391 64.6918C47.143 64.6914 46.4515 64.579 45.7911 64.3588C45.1596 64.1603 44.5776 63.8299 44.0835 63.3893L44.9675 61.8688C45.4194 62.1864 45.9058 62.4518 46.4173 62.66C46.8486 62.8376 47.3095 62.932 47.7758 62.9384C48.0348 62.9536 48.2929 62.8948 48.5198 62.769C48.604 62.7172 48.6728 62.6439 48.7192 62.5566C48.7655 62.4693 48.7878 62.3712 48.7836 62.2725C48.7816 62.1635 48.7495 62.0571 48.6907 61.9653C48.6319 61.8735 48.5488 61.7998 48.4506 61.7524C48.0784 61.5681 47.685 61.4301 47.2793 61.3413C46.7312 61.1871 46.268 61.0368 45.8899 60.8904C45.5624 60.7721 45.2522 60.6106 44.9675 60.4101C44.7469 60.2563 44.5701 60.0476 44.4548 59.8046C44.3463 59.55 44.2935 59.2752 44.3001 58.9986C44.2939 58.6162 44.3745 58.2374 44.5358 57.8906C44.6971 57.5438 44.9349 57.238 45.2313 56.9963C45.5382 56.749 45.8877 56.5598 46.2626 56.4379C46.6804 56.3004 47.1179 56.2322 47.5577 56.236C48.1395 56.2339 48.7182 56.3199 49.2742 56.4909C49.8461 56.68 50.3721 56.9867 50.8183 57.3912L49.8562 58.8807C49.4686 58.6046 49.0528 58.3705 48.6156 58.1824C48.2805 58.0435 47.9219 57.97 47.5592 57.9658C47.3213 57.9581 47.0856 58.0146 46.877 58.1293C46.7895 58.185 46.7177 58.2623 46.6688 58.3538C46.6199 58.4453 46.5955 58.5479 46.5978 58.6517C46.6002 58.7554 46.6293 58.8568 46.6824 58.9459C46.7354 59.0351 46.8106 59.1091 46.9006 59.1607C47.2596 59.3283 47.6368 59.4534 48.0248 59.5335C48.5241 59.6616 49.0159 59.817 49.4982 59.9991C49.8438 60.1261 50.1701 60.3007 50.4677 60.5177C50.6996 60.6901 50.8858 60.9167 51.0099 61.1778C51.1297 61.4567 51.188 61.7582 51.1808 62.0618C51.1941 62.4309 51.1195 62.798 50.963 63.1326C50.8064 63.4672 50.5725 63.7597 50.2805 63.986C49.6725 64.4575 48.8587 64.6927 47.8391 64.6918Z"
          fill="#2E3038"/>
    <path d="M55.5818 64.6918C54.8857 64.6916 54.1941 64.5792 53.5338 64.3588C52.9023 64.1603 52.3202 63.8299 51.8262 63.3893L52.7102 61.8688C53.1621 62.1864 53.6484 62.4518 54.16 62.66C54.5912 62.8376 55.0521 62.932 55.5185 62.9384C55.7751 62.9522 56.0303 62.8934 56.2552 62.769C56.3393 62.7172 56.4081 62.6439 56.4545 62.5566C56.5008 62.4693 56.5231 62.3712 56.5189 62.2725C56.5169 62.1635 56.4848 62.0571 56.426 61.9653C56.3672 61.8735 56.2841 61.7998 56.1859 61.7524C55.8113 61.5676 55.4155 61.4295 55.0072 61.3413C54.4591 61.1871 53.996 61.0368 53.6178 60.8904C53.2903 60.7721 52.9801 60.6106 52.6955 60.4101C52.4748 60.2563 52.2981 60.0476 52.1827 59.8046C52.0742 59.55 52.0215 59.2752 52.028 58.9986C52.0219 58.6162 52.1025 58.2374 52.2638 57.8906C52.425 57.5438 52.6628 57.238 52.9592 56.9963C53.2662 56.749 53.6157 56.5598 53.9906 56.4379C54.4084 56.3004 54.8458 56.2322 55.2857 56.236C55.8723 56.2325 56.4561 56.3185 57.0169 56.4909C57.5888 56.68 58.1147 56.9867 58.561 57.3912L57.5989 58.8807C57.2113 58.6046 56.7954 58.3705 56.3583 58.1824C56.0232 58.0435 55.6646 57.97 55.3019 57.9658C55.0639 57.9581 54.8283 58.0146 54.6197 58.1293C54.5321 58.185 54.4604 58.2623 54.4115 58.3538C54.3626 58.4453 54.3382 58.5479 54.3405 58.6517C54.3429 58.7554 54.372 58.8568 54.425 58.9459C54.4781 59.0351 54.5533 59.1091 54.6433 59.1607C55.0022 59.3283 55.3795 59.4534 55.7675 59.5335C56.2668 59.6613 56.7587 59.8167 57.2408 59.9991C57.5871 60.1258 57.9139 60.3004 58.2118 60.5177C58.4438 60.6901 58.6299 60.9167 58.754 61.1778C58.8739 61.4567 58.9322 61.7582 58.9249 62.0618C58.9383 62.4309 58.8636 62.798 58.7071 63.1326C58.5506 63.4672 58.3167 63.7597 58.0247 63.986C57.4206 64.4575 56.6063 64.6927 55.5818 64.6918Z"
          fill="#2E3038"/>
</svg>
